<?xml version="1.0" encoding="UTF-8"?>
<svg id="Layer_1" xmlns="http://www.w3.org/2000/svg" version="1.1" viewBox="0 0 260.8 110.5">
  <!-- Generator: Adobe Illustrator 30.7.0, SVG Export Plug-In . SVG Version: 2.1.4 Build 114)  -->
  <defs>
    <style>
      .st0 {
        fill: none;
      }

      .st1 {
        fill: #69c;
      }

      .st2 {
        fill: #33669a;
      }
    </style>
  </defs>
  <g>
    <rect class="st0" x="128" y="5.9" width="297.7" height="245.4"/>
    <path class="st2" d="M132.6,41.3c2.6,1.3,6.7,2.7,10.8,2.7s6.8-1.9,6.8-4.7-2-4.2-7.2-6c-7.2-2.6-11.9-6.5-11.9-12.8s6.2-12.9,16.3-12.9,8.4,1,11,2.2l-2.2,7.8c-1.7-.8-4.8-2-9-2s-6.3,2-6.3,4.2,2.4,4,8,6.1c7.6,2.8,11.1,6.8,11.1,12.9s-5.5,13.4-17.3,13.4-9.8-1.3-12.2-2.7l2-8Z"/>
    <path class="st2" d="M163.3,30.5c0-4.1-.1-7.6-.3-10.5h8.4l.4,4.4h.1c2.3-3.3,5.9-5.1,10.4-5.1,6.8,0,13,6,13,15.9s-7.2,16.8-14.2,16.8-6.7-1.5-8.1-3.6h-.1v15.6h-9.7V30.5ZM173,37.9c0,.8,0,1.4.2,2,.6,2.6,2.9,4.6,5.7,4.6,4.2,0,6.7-3.5,6.7-8.8s-2.2-8.8-6.6-8.8-5.2,2-5.8,4.9c-.1.5-.2,1.2-.2,1.7v4.3Z"/>
    <path class="st2" d="M206,38.8c.3,4,4.3,6,8.8,6s6-.4,8.6-1.3l1.3,6.6c-3.2,1.3-7.1,2-11.3,2-10.6,0-16.7-6.1-16.7-15.9s4.9-16.7,15.8-16.7,14,7.9,14,15.6-.2,3.1-.3,3.8h-20.2ZM217.5,32.1c0-2.4-1-6.3-5.5-6.3s-5.8,3.8-6,6.3h11.5Z"/>
    <path class="st2" d="M252.6,50.5c-1.7.8-5,1.5-8.7,1.5-10.1,0-16.6-6.2-16.6-16s6.3-16.6,17.9-16.6,5.4.4,7.4,1.2l-1.5,7.2c-1.2-.5-2.9-1-5.4-1-5.1,0-8.4,3.6-8.4,8.8,0,5.7,3.8,8.8,8.6,8.8s4.1-.4,5.6-1l1.2,7.2Z"/>
  </g>
  <path class="st2" d="M25.4,18.5h0c-1,0-2,.4-2.7,1.1-.7.7-1.1,1.7-1.1,2.8v58.4c0,2.1,1.7,3.9,3.9,3.9,9.1,0,24.3,1.9,34.7,12.9v-61.1c0-.7-.2-1.4-.5-2-8.6-13.9-25.1-16-34.2-16Z"/>
  <path class="st2" d="M104.8,80.9V22.4c0-1-.4-2-1.1-2.8-.7-.7-1.7-1.1-2.7-1.1h0c-9.1,0-25.6,2.1-34.2,16-.4.6-.5,1.2-.5,2v61.1c10.5-11,25.7-12.9,34.7-12.9,2.2,0,3.9-1.8,3.9-3.9Z"/>
  <path class="st1" d="M113.7,32h-2.8v48.8c0,5.5-4.5,9.9-9.9,9.9-7.7,0-20.4,1.5-29.4,10,15.5-3.8,31.9-1.3,41.2.8,1.2.3,2.4,0,3.3-.8.9-.7,1.5-1.9,1.5-3v-61.9c0-2.1-1.7-3.9-3.9-3.9Z"/>
  <path class="st1" d="M15.4,80.9v-48.8h-2.8c-2.1,0-3.9,1.7-3.9,3.9v61.9c0,1.2.5,2.3,1.5,3,.9.7,2.1,1,3.3.8,9.3-2.1,25.7-4.6,41.2-.8-9-8.5-21.7-10-29.4-10-5.5,0-9.9-4.5-9.9-9.9Z"/>
  <g>
    <path class="st1" d="M131.7,55.6c2.6-.6,6.8-1,11-1,6,0,9.9,1,12.7,3.4,2.4,1.8,3.9,4.6,3.9,8.2s-3,8.5-7.9,10.2v.2c4.4,1,9.6,4.7,9.6,11.6s-1.6,7.1-4,9.3c-3.2,3-8.4,4.4-16,4.4s-7.3-.3-9.3-.6v-45.7ZM137.7,74.6h5.5c6.3,0,10-3.4,10-7.9s-4.1-7.6-10.2-7.6-4.4.2-5.3.4v15.1ZM137.7,96.9c1.2.2,2.9.3,5,.3,6.2,0,12-2.3,12-9.1s-5.5-9-12-9h-5v17.8Z"/>
    <path class="st1" d="M206.1,66.9c-9.3,0-16.6,6.6-16.6,17.8s0,.2,0,.4h0c-.3,7.2-4.5,12.3-10.1,12.3s-10.2-5.5-10.2-12.8,3.1-13,10.3-13,7,2.6,8.5,5.8c.8-2.1,1.9-4,3.4-5.5-2.8-3.1-6.9-4.9-11.8-4.9-9.3,0-16.6,6.6-16.6,17.8s7,17.2,16,17.2,16.2-5.1,16.6-16.8h0c0-.2,0-.4,0-.6,0-6.4,3.1-13,10.3-13s10,7.2,10,12.8-4.4,13-10.2,13-7.3-2.6-8.9-6.5c-.7,2.3-1.9,4.2-3.3,5.8,2.9,3.4,7.1,5.3,12,5.3,8.1,0,16.6-5.4,16.6-17.8s-6.5-17.2-16.1-17.2Z"/>
    <path class="st1" d="M230.6,83.8h.1c.8-1.2,1.9-2.6,2.9-3.8l9.9-11.5h7.3l-12.9,13.7,14.7,19.7h-7.5l-11.5-16-3.1,3.5v12.6h-6v-49.1h6v31Z"/>
  </g>
</svg>